<svg width="56" height="56" viewBox="0 0 56 56" fill="none" xmlns="http://www.w3.org/2000/svg">
<path d="M5.95 27.65C6.13385 27.7879 6.34306 27.8882 6.56568 27.9452C6.78831 28.0023 7.01998 28.0149 7.24749 27.9824C7.47499 27.9499 7.69386 27.8729 7.89161 27.7558C8.08936 27.6387 8.26211 27.4839 8.4 27.3C9.45955 25.8873 10.8335 24.7406 12.4129 23.9509C13.9924 23.1611 15.7341 22.75 17.5 22.75C19.2659 22.75 21.0076 23.1611 22.5871 23.9509C24.1665 24.7406 25.5405 25.8873 26.6 27.3C26.8788 27.671 27.2935 27.916 27.753 27.9812C28.2124 28.0465 28.679 27.9265 29.05 27.6478C29.1823 27.5494 29.2994 27.4323 29.3978 27.3C30.4574 25.8873 31.8313 24.7406 33.4108 23.9509C34.9902 23.1611 36.7319 22.75 38.4978 22.75C40.2637 22.75 42.0054 23.1611 43.5849 23.9509C45.1643 24.7406 46.5383 25.8873 47.5978 27.3C47.8766 27.6713 48.2914 27.9167 48.7511 27.9821C49.2108 28.0475 49.6776 27.9277 50.0489 27.6489C50.4202 27.3701 50.6656 26.9553 50.731 26.4956C50.7964 26.0359 50.6766 25.5691 50.3978 25.1978C48.8488 23.1211 46.7831 21.4861 44.4062 20.4553C45.7093 19.2656 46.6223 17.7098 47.0253 15.9919C47.4283 14.2741 47.3025 12.4746 46.6645 10.8295C46.0265 9.1844 44.906 7.77065 43.4502 6.77375C41.9943 5.77686 40.271 5.24341 38.5066 5.24341C36.7421 5.24341 35.0188 5.77686 33.563 6.77375C32.1071 7.77065 30.9866 9.1844 30.3486 10.8295C29.7106 12.4746 29.5848 14.2741 29.9879 15.9919C30.3909 17.7098 31.3038 19.2656 32.6069 20.4553C30.8907 21.1974 29.3316 22.2598 28.0131 23.5856C26.6947 22.2598 25.1356 21.1974 23.4194 20.4553C24.7224 19.2656 25.6354 17.7098 26.0384 15.9919C26.4414 14.2741 26.3157 12.4746 25.6776 10.8295C25.0396 9.1844 23.9191 7.77065 22.4633 6.77375C21.0074 5.77686 19.2842 5.24341 17.5197 5.24341C15.7552 5.24341 14.032 5.77686 12.5761 6.77375C11.1202 7.77065 9.99976 9.1844 9.36174 10.8295C8.72372 12.4746 8.59797 14.2741 9.00098 15.9919C9.40399 17.7098 10.3169 19.2656 11.62 20.4553C9.23267 21.4828 7.15684 23.1188 5.6 25.2C5.46211 25.3838 5.36179 25.5931 5.30475 25.8157C5.24772 26.0383 5.23509 26.27 5.26759 26.4975C5.30009 26.725 5.37708 26.9439 5.49417 27.1416C5.61126 27.3394 5.76615 27.5121 5.95 27.65ZM38.5 8.75C39.5384 8.75 40.5534 9.05791 41.4167 9.63478C42.2801 10.2117 42.953 11.0316 43.3504 11.9909C43.7477 12.9502 43.8517 14.0058 43.6491 15.0242C43.4466 16.0426 42.9465 16.9781 42.2123 17.7123C41.4781 18.4465 40.5426 18.9465 39.5242 19.1491C38.5058 19.3517 37.4502 19.2477 36.4909 18.8504C35.5316 18.453 34.7117 17.7801 34.1348 16.9167C33.5579 16.0534 33.25 15.0384 33.25 14C33.25 12.6076 33.8031 11.2723 34.7877 10.2877C35.7723 9.30312 37.1076 8.75 38.5 8.75ZM17.5 8.75C18.5384 8.75 19.5534 9.05791 20.4167 9.63478C21.2801 10.2117 21.953 11.0316 22.3504 11.9909C22.7477 12.9502 22.8517 14.0058 22.6491 15.0242C22.4466 16.0426 21.9465 16.9781 21.2123 17.7123C20.4781 18.4465 19.5426 18.9465 18.5242 19.1491C17.5058 19.3517 16.4502 19.2477 15.4909 18.8504C14.5316 18.453 13.7117 17.7801 13.1348 16.9167C12.5579 16.0534 12.25 15.0384 12.25 14C12.25 12.6076 12.8031 11.2723 13.7877 10.2877C14.7723 9.30312 16.1076 8.75 17.5 8.75ZM44.4062 43.2053C45.7093 42.0156 46.6223 40.4598 47.0253 38.7419C47.4283 37.0241 47.3025 35.2246 46.6645 33.5795C46.0265 31.9344 44.906 30.5206 43.4502 29.5238C41.9943 28.5269 40.271 27.9934 38.5066 27.9934C36.7421 27.9934 35.0188 28.5269 33.563 29.5238C32.1071 30.5206 30.9866 31.9344 30.3486 33.5795C29.7106 35.2246 29.5848 37.0241 29.9879 38.7419C30.3909 40.4598 31.3038 42.0156 32.6069 43.2053C30.8907 43.9474 29.3316 45.0098 28.0131 46.3356C26.6947 45.0098 25.1356 43.9474 23.4194 43.2053C24.7224 42.0156 25.6354 40.4598 26.0384 38.7419C26.4414 37.0241 26.3157 35.2246 25.6776 33.5795C25.0396 31.9344 23.9191 30.5206 22.4633 29.5238C21.0074 28.5269 19.2842 27.9934 17.5197 27.9934C15.7552 27.9934 14.032 28.5269 12.5761 29.5238C11.1202 30.5206 9.99976 31.9344 9.36174 33.5795C8.72372 35.2246 8.59797 37.0241 9.00098 38.7419C9.40399 40.4598 10.3169 42.0156 11.62 43.2053C9.23267 44.2328 7.15684 45.8688 5.6 47.95C5.46211 48.1338 5.36179 48.3431 5.30475 48.5657C5.24772 48.7883 5.23509 49.02 5.26759 49.2475C5.30009 49.475 5.37708 49.6939 5.49417 49.8916C5.61126 50.0894 5.76615 50.2621 5.95 50.4C6.13385 50.5379 6.34306 50.6382 6.56568 50.6952C6.78831 50.7523 7.01998 50.7649 7.24749 50.7324C7.47499 50.6999 7.69386 50.6229 7.89161 50.5058C8.08936 50.3887 8.26211 50.2338 8.4 50.05C9.45955 48.6373 10.8335 47.4906 12.4129 46.7009C13.9924 45.9111 15.7341 45.5 17.5 45.5C19.2659 45.5 21.0076 45.9111 22.5871 46.7009C24.1665 47.4906 25.5405 48.6373 26.6 50.05C26.8788 50.421 27.2935 50.666 27.753 50.7312C28.2124 50.7965 28.679 50.6765 29.05 50.3978C29.1823 50.2994 29.2994 50.1823 29.3978 50.05C30.4574 48.6373 31.8313 47.4906 33.4108 46.7009C34.9902 45.9111 36.7319 45.5 38.4978 45.5C40.2637 45.5 42.0054 45.9111 43.5849 46.7009C45.1643 47.4906 46.5383 48.6373 47.5978 50.05C47.8766 50.4213 48.2914 50.6667 48.7511 50.7321C49.2108 50.7975 49.6776 50.6777 50.0489 50.3989C50.4202 50.1201 50.6656 49.7053 50.731 49.2456C50.7964 48.7859 50.6766 48.3191 50.3978 47.9478C48.8488 45.8711 46.7831 44.2361 44.4062 43.2053ZM17.5 31.5C18.5384 31.5 19.5534 31.8079 20.4167 32.3848C21.2801 32.9617 21.953 33.7816 22.3504 34.7409C22.7477 35.7002 22.8517 36.7558 22.6491 37.7742C22.4466 38.7926 21.9465 39.7281 21.2123 40.4623C20.4781 41.1965 19.5426 41.6965 18.5242 41.8991C17.5058 42.1017 16.4502 41.9977 15.4909 41.6004C14.5316 41.203 13.7117 40.5301 13.1348 39.6667C12.5579 38.8034 12.25 37.7883 12.25 36.75C12.25 35.3576 12.8031 34.0223 13.7877 33.0377C14.7723 32.0531 16.1076 31.5 17.5 31.5ZM38.5 31.5C39.5384 31.5 40.5534 31.8079 41.4167 32.3848C42.2801 32.9617 42.953 33.7816 43.3504 34.7409C43.7477 35.7002 43.8517 36.7558 43.6491 37.7742C43.4466 38.7926 42.9465 39.7281 42.2123 40.4623C41.4781 41.1965 40.5426 41.6965 39.5242 41.8991C38.5058 42.1017 37.4502 41.9977 36.4909 41.6004C35.5316 41.203 34.7117 40.5301 34.1348 39.6667C33.5579 38.8034 33.25 37.7883 33.25 36.75C33.25 35.3576 33.8031 34.0223 34.7877 33.0377C35.7723 32.0531 37.1076 31.5 38.5 31.5Z" fill="#1288A0"/>
</svg>
