<svg width="56" height="56" viewBox="0 0 56 56" fill="none" xmlns="http://www.w3.org/2000/svg">
<path d="M33.25 21H22.75C22.2859 21 21.8408 21.1844 21.5126 21.5126C21.1844 21.8408 21 22.2859 21 22.75V33.25C21 33.7141 21.1844 34.1593 21.5126 34.4874C21.8408 34.8156 22.2859 35 22.75 35H33.25C33.7141 35 34.1593 34.8156 34.4874 34.4874C34.8156 34.1593 35 33.7141 35 33.25V22.75C35 22.2859 34.8156 21.8408 34.4874 21.5126C34.1593 21.1844 33.7141 21 33.25 21ZM31.5 31.5H24.5V24.5H31.5V31.5ZM50.75 31.5H47.25V24.5H50.75C51.2141 24.5 51.6592 24.3156 51.9874 23.9874C52.3156 23.6592 52.5 23.2141 52.5 22.75C52.5 22.2859 52.3156 21.8408 51.9874 21.5126C51.6592 21.1844 51.2141 21 50.75 21H47.25V12.25C47.25 11.3217 46.8812 10.4315 46.2249 9.77513C45.5685 9.11875 44.6783 8.75 43.75 8.75H35V5.25C35 4.78587 34.8156 4.34075 34.4874 4.01256C34.1593 3.68437 33.7141 3.5 33.25 3.5C32.7859 3.5 32.3407 3.68437 32.0126 4.01256C31.6844 4.34075 31.5 4.78587 31.5 5.25V8.75H24.5V5.25C24.5 4.78587 24.3156 4.34075 23.9874 4.01256C23.6592 3.68437 23.2141 3.5 22.75 3.5C22.2859 3.5 21.8408 3.68437 21.5126 4.01256C21.1844 4.34075 21 4.78587 21 5.25V8.75H12.25C11.3217 8.75 10.4315 9.11875 9.77513 9.77513C9.11875 10.4315 8.75 11.3217 8.75 12.25V21H5.25C4.78587 21 4.34075 21.1844 4.01256 21.5126C3.68437 21.8408 3.5 22.2859 3.5 22.75C3.5 23.2141 3.68437 23.6592 4.01256 23.9874C4.34075 24.3156 4.78587 24.5 5.25 24.5H8.75V31.5H5.25C4.78587 31.5 4.34075 31.6844 4.01256 32.0126C3.68437 32.3407 3.5 32.7859 3.5 33.25C3.5 33.7141 3.68437 34.1593 4.01256 34.4874C4.34075 34.8156 4.78587 35 5.25 35H8.75V43.75C8.75 44.6783 9.11875 45.5685 9.77513 46.2249C10.4315 46.8812 11.3217 47.25 12.25 47.25H21V50.75C21 51.2141 21.1844 51.6592 21.5126 51.9874C21.8408 52.3156 22.2859 52.5 22.75 52.5C23.2141 52.5 23.6592 52.3156 23.9874 51.9874C24.3156 51.6592 24.5 51.2141 24.5 50.75V47.25H31.5V50.75C31.5 51.2141 31.6844 51.6592 32.0126 51.9874C32.3407 52.3156 32.7859 52.5 33.25 52.5C33.7141 52.5 34.1593 52.3156 34.4874 51.9874C34.8156 51.6592 35 51.2141 35 50.75V47.25H43.75C44.6783 47.25 45.5685 46.8812 46.2249 46.2249C46.8812 45.5685 47.25 44.6783 47.25 43.75V35H50.75C51.2141 35 51.6592 34.8156 51.9874 34.4874C52.3156 34.1593 52.5 33.7141 52.5 33.25C52.5 32.7859 52.3156 32.3407 51.9874 32.0126C51.6592 31.6844 51.2141 31.5 50.75 31.5ZM43.75 43.75H12.25V12.25H43.75V33.2216C43.75 33.2216 43.75 33.2412 43.75 33.25C43.75 33.2588 43.75 33.2697 43.75 33.2784V43.75Z" fill="#1288A0"/>
</svg>
