<svg width="56" height="56" viewBox="0 0 56 56" fill="none" xmlns="http://www.w3.org/2000/svg">
<path d="M49 8.75V16.625C49 17.0891 48.8156 17.5342 48.4874 17.8624C48.1592 18.1906 47.7141 18.375 47.25 18.375C46.7859 18.375 46.3408 18.1906 46.0126 17.8624C45.6844 17.5342 45.5 17.0891 45.5 16.625V10.5H39.375C38.9109 10.5 38.4657 10.3156 38.1376 9.98744C37.8094 9.65925 37.625 9.21413 37.625 8.75C37.625 8.28587 37.8094 7.84075 38.1376 7.51256C38.4657 7.18437 38.9109 7 39.375 7H47.25C47.7141 7 48.1592 7.18437 48.4874 7.51256C48.8156 7.84075 49 8.28587 49 8.75ZM47.25 37.625C46.7859 37.625 46.3408 37.8094 46.0126 38.1376C45.6844 38.4657 45.5 38.9109 45.5 39.375V45.5H39.375C38.9109 45.5 38.4657 45.6844 38.1376 46.0126C37.8094 46.3408 37.625 46.7859 37.625 47.25C37.625 47.7141 37.8094 48.1592 38.1376 48.4874C38.4657 48.8156 38.9109 49 39.375 49H47.25C47.7141 49 48.1592 48.8156 48.4874 48.4874C48.8156 48.1592 49 47.7141 49 47.25V39.375C49 38.9109 48.8156 38.4657 48.4874 38.1376C48.1592 37.8094 47.7141 37.625 47.25 37.625ZM16.625 45.5H10.5V39.375C10.5 38.9109 10.3156 38.4657 9.98744 38.1376C9.65925 37.8094 9.21413 37.625 8.75 37.625C8.28587 37.625 7.84075 37.8094 7.51256 38.1376C7.18437 38.4657 7 38.9109 7 39.375V47.25C7 47.7141 7.18437 48.1592 7.51256 48.4874C7.84075 48.8156 8.28587 49 8.75 49H16.625C17.0891 49 17.5342 48.8156 17.8624 48.4874C18.1906 48.1592 18.375 47.7141 18.375 47.25C18.375 46.7859 18.1906 46.3408 17.8624 46.0126C17.5342 45.6844 17.0891 45.5 16.625 45.5ZM8.75 18.375C9.21413 18.375 9.65925 18.1906 9.98744 17.8624C10.3156 17.5342 10.5 17.0891 10.5 16.625V10.5H16.625C17.0891 10.5 17.5342 10.3156 17.8624 9.98744C18.1906 9.65925 18.375 9.21413 18.375 8.75C18.375 8.28587 18.1906 7.84075 17.8624 7.51256C17.5342 7.18437 17.0891 7 16.625 7H8.75C8.28587 7 7.84075 7.18437 7.51256 7.51256C7.18437 7.84075 7 8.28587 7 8.75V16.625C7 17.0891 7.18437 17.5342 7.51256 17.8624C7.84075 18.1906 8.28587 18.375 8.75 18.375ZM38.5 38.5C38.2281 38.5006 37.9599 38.4378 37.7165 38.3167C37.4731 38.1956 37.2613 38.0194 37.0978 37.8022C36.0383 36.3895 34.6643 35.2428 33.0849 34.4531C31.5054 33.6633 29.7637 33.2522 27.9978 33.2522C26.2319 33.2522 24.4902 33.6633 22.9108 34.4531C21.3313 35.2428 19.9574 36.3895 18.8978 37.8022C18.6188 38.1735 18.2036 38.4187 17.7438 38.484C17.2839 38.5492 16.8169 38.4291 16.4456 38.15C16.0743 37.8709 15.8291 37.4558 15.7639 36.9959C15.6986 36.5361 15.8188 36.0691 16.0978 35.6978C17.6487 33.6212 19.7158 31.9863 22.0938 30.9553C20.7907 29.7656 19.8777 28.2098 19.4747 26.4919C19.0717 24.7741 19.1975 22.9746 19.8355 21.3295C20.4735 19.6844 21.594 18.2706 23.0498 17.2738C24.5057 16.2769 26.229 15.7434 27.9934 15.7434C29.7579 15.7434 31.4812 16.2769 32.937 17.2738C34.3929 18.2706 35.5134 19.6844 36.1514 21.3295C36.7894 22.9746 36.9152 24.7741 36.5121 26.4919C36.1091 28.2098 35.1962 29.7656 33.8931 30.9553C36.2727 31.9856 38.3413 33.6206 39.8934 35.6978C40.0887 35.9574 40.2079 36.2661 40.2377 36.5896C40.2675 36.913 40.2067 37.2384 40.062 37.5292C39.9174 37.82 39.6947 38.0649 39.4188 38.2363C39.143 38.4078 38.8248 38.4991 38.5 38.5ZM28 29.75C29.0384 29.75 30.0534 29.4421 30.9167 28.8652C31.7801 28.2883 32.453 27.4684 32.8504 26.5091C33.2477 25.5498 33.3517 24.4942 33.1491 23.4758C32.9466 22.4574 32.4465 21.5219 31.7123 20.7877C30.9781 20.0535 30.0426 19.5534 29.0242 19.3509C28.0058 19.1483 26.9502 19.2523 25.9909 19.6496C25.0316 20.047 24.2117 20.7199 23.6348 21.5833C23.0579 22.4466 22.75 23.4616 22.75 24.5C22.75 25.8924 23.3031 27.2277 24.2877 28.2123C25.2723 29.1969 26.6076 29.75 28 29.75Z" fill="#1288A0"/>
</svg>
