<svg width="56" height="56" viewBox="0 0 56 56" fill="none" xmlns="http://www.w3.org/2000/svg">
<path d="M46.375 21.0001C45.5876 20.9959 44.8068 21.1445 44.0759 21.4376L37.4062 13.1119C37.9545 12.3223 38.3092 11.4147 38.4416 10.4625C38.574 9.51039 38.4805 8.54045 38.1685 7.63116C37.8566 6.72188 37.335 5.89879 36.6459 5.22847C35.9569 4.55816 35.1197 4.05944 34.2022 3.77267C33.2847 3.48589 32.3125 3.41911 31.3644 3.57773C30.4162 3.73634 29.5188 4.1159 28.7445 4.6857C27.9703 5.2555 27.341 5.99953 26.9077 6.85762C26.4743 7.7157 26.249 8.66375 26.25 9.62505C26.2499 9.83985 26.2609 10.0545 26.2828 10.2682L16.1175 14.5032C15.5052 13.7521 14.7233 13.1571 13.8363 12.7669C12.9492 12.3767 11.9823 12.2026 11.0149 12.2589C10.0474 12.3151 9.10715 12.6001 8.27129 13.0904C7.43542 13.5807 6.72782 14.2623 6.20662 15.0793C5.68543 15.8963 5.36552 16.8252 5.27317 17.7899C5.18083 18.7545 5.31869 19.7273 5.67543 20.6283C6.03216 21.5293 6.5976 22.3328 7.32526 22.9728C8.05293 23.6128 8.92206 24.071 9.86125 24.3097L10.2659 34.4554C9.33861 34.772 8.50079 35.3065 7.82281 36.014C7.14484 36.7215 6.6465 37.5813 6.36964 38.5212C6.09278 39.4612 6.04549 40.4539 6.23172 41.4159C6.41796 42.3779 6.83229 43.2812 7.43993 44.05C8.04757 44.8187 8.83078 45.4304 9.7238 45.8338C10.6168 46.2372 11.5936 46.4204 12.5721 46.3681C13.5506 46.3158 14.5022 46.0294 15.3472 45.5332C16.1921 45.0369 16.9056 44.3451 17.4278 43.516L28 46.4779C28.0148 47.463 28.2671 48.43 28.7354 49.2969C29.2037 50.1637 29.8743 50.9048 30.6901 51.4572C31.5059 52.0097 32.4429 52.3571 33.4217 52.4702C34.4004 52.5832 35.392 52.4584 36.3123 52.1065C37.2325 51.7545 38.0543 51.1857 38.7078 50.4484C39.3614 49.7111 39.8274 48.8271 40.0664 47.8712C40.3054 46.9154 40.3102 45.916 40.0806 44.9579C39.8509 43.9998 39.3935 43.1112 38.7472 42.3676L44.6994 33.016C45.5418 33.2558 46.4259 33.3122 47.292 33.1812C48.1581 33.0503 48.9861 32.7351 49.72 32.2569C50.4539 31.7788 51.0767 31.1488 51.5464 30.4094C52.0161 29.67 52.3217 28.8385 52.4427 27.971C52.5637 27.1035 52.4972 26.2201 52.2477 25.3804C51.9982 24.5408 51.5715 23.7644 50.9964 23.1037C50.4213 22.443 49.7112 21.9133 48.914 21.5504C48.1167 21.1875 47.2509 20.9999 46.375 21.0001ZM34.125 40.2501H33.9303L30.3909 29.6341L40.5956 29.1485C40.8536 29.8714 41.2454 30.5393 41.7506 31.1172L35.7984 40.4688C35.2534 40.319 34.6902 40.2454 34.125 40.2501ZM13.7637 34.3154L13.3591 24.1697C14.1841 23.8856 14.9388 23.4284 15.5728 22.8288L24.8762 28.2188L15.8069 35.2669C15.1906 34.8261 14.4978 34.5034 13.7637 34.3154ZM32.7184 15.7501C33.39 15.7134 34.0509 15.5655 34.6741 15.3126L41.3437 23.6382C40.9183 24.249 40.6084 24.9326 40.4294 25.6551L30.2422 26.1407L32.7184 15.7501ZM17.9572 38.0297L27.125 30.9007L30.6119 41.3635C29.9479 41.8317 29.3829 42.4264 28.9494 43.1135L18.375 40.1472C18.3622 39.4222 18.2207 38.7053 17.9572 38.0297ZM32.375 7.00005C32.8942 7.00005 33.4017 7.15401 33.8334 7.44245C34.265 7.73088 34.6015 8.14085 34.8002 8.62051C34.9989 9.10016 35.0508 9.62796 34.9496 10.1372C34.8483 10.6464 34.5983 11.1141 34.2312 11.4812C33.864 11.8483 33.3963 12.0983 32.8871 12.1996C32.3779 12.3009 31.8501 12.2489 31.3705 12.0502C30.8908 11.8516 30.4808 11.5151 30.1924 11.0834C29.904 10.6517 29.75 10.1442 29.75 9.62505C29.75 8.92886 30.0266 8.26118 30.5188 7.7689C31.0111 7.27661 31.6788 7.00005 32.375 7.00005ZM27.6325 13.4969C28.1028 14.0701 28.6717 14.5546 29.3125 14.9276L26.8406 25.3072L17.3316 19.8013C17.4434 19.3341 17.5 18.8554 17.5 18.3751C17.5001 18.1603 17.4891 17.9456 17.4672 17.7319L27.6325 13.4969ZM8.75 18.3751C8.75 17.8559 8.90395 17.3484 9.19239 16.9167C9.48083 16.485 9.8908 16.1486 10.3705 15.9499C10.8501 15.7512 11.3779 15.6992 11.8871 15.8005C12.3963 15.9018 12.864 16.1518 13.2312 16.5189C13.5983 16.886 13.8483 17.3537 13.9496 17.8629C14.0508 18.3721 13.9989 18.8999 13.8002 19.3796C13.6015 19.8593 13.265 20.2692 12.8334 20.5577C12.4017 20.8461 11.8942 21.0001 11.375 21.0001C10.6788 21.0001 10.0111 20.7235 9.51884 20.2312C9.02656 19.7389 8.75 19.0712 8.75 18.3751ZM12.25 42.8751C11.7308 42.8751 11.2233 42.7211 10.7916 42.4327C10.3599 42.1442 10.0235 41.7343 9.82481 41.2546C9.62613 40.7749 9.57415 40.2471 9.67543 39.7379C9.77672 39.2287 10.0267 38.761 10.3938 38.3939C10.761 38.0268 11.2287 37.7768 11.7379 37.6755C12.2471 37.5742 12.7749 37.6262 13.2545 37.8249C13.7342 38.0236 14.1442 38.36 14.4326 38.7917C14.721 39.2234 14.875 39.7309 14.875 40.2501C14.875 40.9462 14.5984 41.6139 14.1062 42.1062C13.6139 42.5985 12.9462 42.8751 12.25 42.8751ZM34.125 49.0001C33.6058 49.0001 33.0983 48.8461 32.6666 48.5577C32.2349 48.2692 31.8985 47.8593 31.6998 47.3796C31.5011 46.8999 31.4491 46.3721 31.5504 45.8629C31.6517 45.3537 31.9017 44.886 32.2688 44.5189C32.636 44.1518 33.1037 43.9018 33.6129 43.8005C34.1221 43.6992 34.6499 43.7512 35.1295 43.9499C35.6092 44.1486 36.0192 44.485 36.3076 44.9167C36.596 45.3484 36.75 45.8559 36.75 46.3751C36.75 47.0713 36.4734 47.7389 35.9812 48.2312C35.4889 48.7235 34.8212 49.0001 34.125 49.0001ZM46.375 29.7501C45.8558 29.7501 45.3483 29.5961 44.9166 29.3077C44.4849 29.0192 44.1485 28.6093 43.9498 28.1296C43.7511 27.6499 43.6992 27.1221 43.8004 26.6129C43.9017 26.1037 44.1517 25.636 44.5188 25.2689C44.886 24.9018 45.3537 24.6518 45.8629 24.5505C46.3721 24.4492 46.8999 24.5012 47.3795 24.6999C47.8592 24.8986 48.2692 25.235 48.5576 25.6667C48.846 26.0984 49 26.6059 49 27.1251C49 27.8212 48.7234 28.4889 48.2312 28.9812C47.7389 29.4735 47.0712 29.7501 46.375 29.7501Z" fill="#1288A0"/>
</svg>
